Coordinates
version=1
nRows=43
nColumns=12
inDegrees=yes

Units are S.I. units (second, meters, Newtons, ...)
Angles are in degrees

endheader
time	SC_y	SC_z	SC_x	AC_y	AC_z	AC_x	GH_y	GH_z	GH_yy	EL_x	PS_y
       0.0              -25.24         -1.289          35.07          52.27          4.263          17.27          60.34        -0.6755          49.63          131.9          70.08
   0.01636              -25.24         -1.286          35.07          52.27           4.26          17.26          60.33        -0.6668          49.63          131.9          70.07
   0.03272              -25.23         -1.283          35.07          52.27          4.256          17.26          60.33        -0.6576          49.63          131.9          70.07
   0.04908              -25.23          -1.28          35.07          52.27          4.252          17.26          60.32        -0.6478          49.63          131.9          70.07
   0.06545              -25.23         -1.276          35.08          52.28          4.248          17.26          60.31        -0.6374          49.63          131.9          70.07
   0.08181              -25.23         -1.273          35.08          52.28          4.243          17.25           60.3        -0.6263          49.63          131.9          70.07
   0.09817              -25.23         -1.269          35.08          52.28          4.239          17.25          60.29        -0.6145          49.63          131.9          70.07
    0.1145              -25.22         -1.264          35.09          52.28          4.233          17.25          60.28        -0.6018          49.63          131.9          70.07
    0.1309              -25.22          -1.26          35.09          52.29          4.228          17.24          60.27        -0.5882          49.63          131.9          70.07
    0.1473              -25.22         -1.255          35.09          52.29          4.222          17.24          60.26        -0.5737          49.63          131.9          70.06
    0.1636              -25.22          -1.25           35.1          52.29          4.216          17.23          60.25         -0.558          49.63          131.9          70.06
      0.18              -25.21         -1.244           35.1           52.3          4.209          17.23          60.24        -0.5412          49.63          131.9          70.06
    0.1963              -25.21         -1.238          35.11           52.3          4.202          17.22          60.22        -0.5231          49.63          131.9          70.06
    0.2127              -25.21         -1.231          35.11           52.3          4.194          17.22          60.21        -0.5035          49.63          131.8          70.06
    0.2291               -25.2         -1.224          35.12          52.31          4.185          17.21          60.19        -0.4823          49.63          131.8          70.05
    0.2454               -25.2         -1.216          35.13          52.31          4.176           17.2          60.18        -0.4593          49.63          131.8          70.05
    0.2618              -25.19         -1.208          35.13          52.32          4.166          17.19          60.16        -0.4343          49.63          131.8          70.05
    0.2781              -25.19         -1.198          35.14          52.32          4.155          17.19          60.14        -0.4071          49.63          131.8          70.05
    0.2945              -25.18         -1.188          35.15          52.33          4.143          17.18          60.11        -0.3773          49.64          131.8          70.04
    0.3109              -25.18         -1.177          35.16          52.34           4.13          17.17          60.09        -0.3448          49.64          131.8          70.04
    0.3272              -25.17         -1.165          35.17          52.35          4.115          17.16          60.06        -0.3091          49.64          131.8          70.03
    0.3436              -25.17         -1.152          35.18          52.35          4.099          17.14          60.03        -0.2697          49.64          131.8          70.03
      0.36              -25.16         -1.137          35.19          52.36          4.082          17.13           60.0        -0.2263          49.64          131.8          70.02
    0.3763              -25.15         -1.121          35.21          52.37          4.062          17.12          59.96        -0.1781          49.64          131.8          70.02
    0.3927              -25.14         -1.103          35.22          52.38          4.041           17.1          59.92        -0.1246          49.64          131.8          70.01
     0.409              -25.13         -1.083          35.24           52.4          4.016          17.08          59.87       -0.06489          49.64          131.8          70.01
    0.4254              -25.12          -1.06          35.26          52.41          3.989          17.06          59.82       0.002003          49.64          131.8           70.0
    0.4418              -25.11         -1.035          35.28          52.43          3.959          17.04          59.76        0.07725          49.64          131.8          69.99
    0.4581              -25.09         -1.006           35.3          52.44          3.925          17.01           59.7         0.1623          49.64          131.7          69.98
    0.4745              -25.07        -0.9732          35.33          52.47          3.885          16.98          59.62         0.2588          49.64          131.7          69.97
    0.4908              -25.05        -0.9359          35.36          52.49          3.841          16.95          59.54          0.369          49.65          131.7          69.96
    0.5072              -25.03        -0.8931           35.4          52.52           3.79          16.91          59.44         0.4955          49.65          131.7          69.94
    0.5236              -25.01        -0.8437          35.44          52.55          3.731          16.87          59.33         0.6415          49.65          131.7          69.93
    0.5399              -24.98        -0.7863          35.49          52.58          3.662          16.82           59.2         0.8111          49.65          131.6          69.91
    0.5563              -24.94        -0.7191          35.55          52.62          3.582          16.76          59.04           1.01          49.65          131.6          69.89
    0.5727               -24.9        -0.6399          35.61          52.67          3.487          16.68          58.86          1.244          49.66          131.6          69.86
     0.589              -24.85        -0.5458          35.69          52.73          3.375           16.6          58.65          1.522          49.66          131.5          69.83
    0.6054              -24.79        -0.4331          35.79           52.8           3.24           16.5          58.39          1.855          49.66          131.5          69.79
    0.6217              -24.72        -0.2966           35.9          52.89          3.077          16.38          58.08          2.258          49.67          131.4          69.75
    0.6381              -24.64        -0.1299          36.04          52.99          2.878          16.23           57.7          2.751          49.68          131.3          69.69
    0.6545              -24.53         0.0758          36.21          53.12          2.632          16.04          57.24          3.359          49.69          131.2          69.62
    0.6708               -24.4         0.3323          36.43          53.28          2.326          15.81          56.65          4.117           49.7          131.1          69.54
    0.6872              -24.23         0.6555           36.7          53.48          1.939          15.52          55.92          5.072          49.71          130.9          69.43
